<?xml version="1.0" standalone="no"?>
<!DOCTYPE svg PUBLIC "-//W3C//DTD SVG 20010904//EN"
 "http://www.w3.org/TR/2001/REC-SVG-20010904/DTD/svg10.dtd">
<svg version="1.0" xmlns="http://www.w3.org/2000/svg"
 width="128.000000pt" height="128.000000pt" viewBox="0 0 128.000000 128.000000"
 preserveAspectRatio="xMidYMid meet">
<metadata>
Created by potrace 1.11, written by Peter Selinger 2001-2013
</metadata>
<g transform="translate(0.000000,128.000000) scale(0.100000,-0.100000)"
fill="#000000" stroke="none">
<path d="M489 1261 c-275 -74 -465 -297 -486 -571 -20 -261 125 -512 361 -624
106 -51 170 -64 294 -62 173 4 307 62 432 186 75 76 121 148 158 252 23 64 26
88 26 198 0 110 -3 134 -26 198 -79 220 -244 370 -473 428 -56 15 -223 11
-286 -5z m286 -129 c210 -61 356 -239 372 -451 17 -234 -114 -436 -340 -523
-71 -28 -224 -34 -298 -12 -124 37 -226 111 -292 212 -59 90 -78 149 -84 262
-5 85 -2 104 21 175 59 174 208 310 378 345 64 13 186 9 243 -8z"/>
<path d="M510 640 c0 -154 3 -280 6 -280 9 0 374 273 374 280 0 7 -365 280
-374 280 -3 0 -6 -126 -6 -280z"/>
</g>
</svg>
